<?xml version="1.0" standalone="no"?>
<!DOCTYPE svg PUBLIC "-//W3C//DTD SVG 20010904//EN"
 "http://www.w3.org/TR/2001/REC-SVG-20010904/DTD/svg10.dtd">
<svg version="1.0" xmlns="http://www.w3.org/2000/svg"
 width="512.000000pt" height="512.000000pt" viewBox="0 0 512.000000 512.000000"
 preserveAspectRatio="xMidYMid meet">

<g transform="translate(0.000000,512.000000) scale(0.100000,-0.100000)"
fill="#000000" stroke="none">
<path d="M2330 5110 c-494 -48 -950 -230 -1350 -538 -195 -150 -448 -432 -594
-662 -63 -99 -186 -351 -230 -471 -49 -134 -102 -340 -128 -499 -31 -195 -31
-565 0 -760 45 -276 116 -498 237 -745 132 -269 269 -460 489 -681 221 -220
412 -357 681 -489 247 -121 469 -192 745 -237 195 -31 565 -31 760 0 276 45
498 116 745 237 269 132 460 269 681 489 220 221 357 412 489 681 123 250 194
477 237 750 31 200 31 550 0 750 -43 273 -114 500 -237 750 -132 269 -269 460
-489 681 -221 220 -412 357 -681 489 -246 121 -474 193 -740 235 -147 23 -475
34 -615 20z m510 -264 c419 -53 821 -221 1154 -484 91 -71 297 -277 368 -368
263 -333 431 -735 484 -1154 18 -147 18 -413 0 -560 -53 -419 -221 -821 -484
-1154 -71 -91 -277 -297 -368 -368 -270 -213 -615 -378 -939 -448 -313 -67
-677 -67 -990 0 -324 70 -669 235 -939 448 -91 71 -297 277 -368 368 -213 270
-378 615 -448 939 -67 313 -67 677 0 990 70 324 235 669 448 939 71 91 277
297 368 368 328 259 730 429 1139 483 137 18 435 18 575 1z"/>
<path d="M2920 4569 c-64 -26 -100 -94 -81 -152 20 -59 56 -83 171 -112 624
-158 1127 -656 1290 -1278 16 -60 36 -120 45 -133 56 -85 171 -75 218 19 23
46 15 90 -49 287 -144 443 -433 821 -824 1080 -180 119 -453 237 -660 285 -75
17 -77 17 -110 4z"/>
<path d="M2425 4050 c-609 -56 -1131 -484 -1300 -1068 -79 -272 -79 -572 0
-844 133 -460 504 -845 962 -997 557 -186 1167 -29 1569 402 473 508 533 1270
145 1849 -253 378 -650 613 -1110 658 -107 11 -149 10 -266 0z m329 -265 c49
-8 106 -19 125 -25 90 -28 181 -63 181 -71 0 -19 -329 -574 -339 -571 -103 23
-219 23 -322 0 -10 -3 -339 552 -339 571 0 8 90 43 182 71 127 39 360 50 512
25z m-752 -512 l166 -288 -33 -35 c-46 -47 -102 -143 -122 -207 l-17 -53 -334
0 -334 0 6 58 c23 197 135 439 287 621 48 58 193 191 208 191 4 0 81 -129 173
-287z m1369 224 c80 -68 157 -155 221 -250 90 -133 177 -357 194 -499 l6 -58
-334 0 -334 0 -17 53 c-20 64 -76 160 -122 207 l-33 35 166 288 c92 158 169
287 173 287 3 0 39 -29 80 -63z m-694 -639 c119 -44 203 -168 203 -298 0 -176
-144 -320 -320 -320 -176 0 -320 144 -320 320 0 225 224 378 437 298z m-664
-481 c20 -64 76 -160 122 -207 l33 -35 -159 -275 c-88 -151 -164 -282 -169
-289 -6 -12 -15 -10 -46 14 -67 49 -197 188 -252 268 -102 148 -190 368 -208
520 l-6 57 334 0 334 0 17 -53z m1773 -4 c-18 -152 -106 -372 -208 -520 -55
-80 -185 -219 -252 -268 -31 -24 -40 -26 -46 -14 -5 7 -81 138 -169 289 l-159
275 33 35 c46 47 102 143 122 207 l17 53 334 0 334 0 -6 -57z m-1274 -388 c51
-5 138 2 210 18 9 2 338 -555 338 -572 0 -8 -91 -43 -181 -71 -169 -51 -469
-51 -638 0 -90 28 -181 63 -181 71 0 7 247 440 311 546 18 28 23 31 49 23 16
-5 57 -11 92 -15z"/>
<path d="M2520 2679 c-33 -14 -59 -38 -77 -73 -31 -59 14 -145 87 -167 32 -10
44 -9 76 7 45 22 84 75 84 113 0 32 -31 85 -63 105 -32 21 -77 28 -107 15z"/>
<path d="M625 2276 c-66 -29 -91 -84 -74 -165 22 -110 100 -328 163 -456 165
-337 403 -608 716 -815 236 -156 661 -318 760 -290 70 20 111 90 91 153 -20
59 -56 83 -171 112 -629 159 -1136 666 -1295 1295 -28 112 -47 143 -102 166
-39 17 -50 17 -88 0z"/>
</g>
</svg>
